<svg width="1920" height="1080" viewBox="0 0 1920 1080" fill="none" xmlns="http://www.w3.org/2000/svg">
  <!-- Gradiente de fundo principal -->
  <defs>
    <linearGradient id="mainGradient" x1="0%" y1="0%" x2="100%" y2="100%">
      <stop offset="0%" style="stop-color:#667eea;stop-opacity:1" />
      <stop offset="50%" style="stop-color:#764ba2;stop-opacity:1" />
      <stop offset="100%" style="stop-color:#f093fb;stop-opacity:1" />
    </linearGradient>
    
    <!-- Gradientes para elementos decorativos -->
    <linearGradient id="pinGradient" x1="0%" y1="0%" x2="100%" y2="100%">
      <stop offset="0%" style="stop-color:#10b981;stop-opacity:0.3" />
      <stop offset="100%" style="stop-color:#2563eb;stop-opacity:0.3" />
    </linearGradient>
    
    <radialGradient id="circleGradient" cx="50%" cy="50%" r="50%">
      <stop offset="0%" style="stop-color:#ffffff;stop-opacity:0.1" />
      <stop offset="100%" style="stop-color:#ffffff;stop-opacity:0.05" />
    </radialGradient>
    
    <!-- Filtros para efeitos -->
    <filter id="blur" x="-50%" y="-50%" width="200%" height="200%">
      <feGaussianBlur in="SourceGraphic" stdDeviation="3"/>
    </filter>
  </defs>
  
  <!-- Fundo principal -->
  <rect width="1920" height="1080" fill="url(#mainGradient)"/>
  
  <!-- Elementos decorativos de fundo - Círculos grandes -->
  <circle cx="200" cy="150" r="80" fill="url(#circleGradient)" opacity="0.4"/>
  <circle cx="1700" cy="200" r="120" fill="url(#circleGradient)" opacity="0.3"/>
  <circle cx="300" cy="800" r="100" fill="url(#circleGradient)" opacity="0.35"/>
  <circle cx="1600" cy="900" r="90" fill="url(#circleGradient)" opacity="0.4"/>
  
  <!-- Linhas de conexão sutis (representando rotas/caminhos) -->
  <path d="M100 300 Q400 200 700 350 T1300 400" stroke="rgba(255,255,255,0.1)" stroke-width="2" fill="none"/>
  <path d="M200 600 Q600 500 1000 650 T1600 700" stroke="rgba(255,255,255,0.08)" stroke-width="2" fill="none"/>
  <path d="M50 450 Q350 350 650 500 T1150 550" stroke="rgba(255,255,255,0.06)" stroke-width="1.5" fill="none"/>
  
  <!-- Pins de localização estilizados -->
  <g opacity="0.2">
    <!-- Pin 1 -->
    <g transform="translate(300, 250)">
      <path d="M12 2C8.13 2 5 5.13 5 9c0 5.25 7 13 7 13s7-7.75 7-13c0-3.87-3.13-7-7-7z" fill="url(#pinGradient)"/>
      <circle cx="12" cy="9" r="2.5" fill="rgba(255,255,255,0.6)"/>
    </g>
    
    <!-- Pin 2 -->
    <g transform="translate(800, 400)">
      <path d="M12 2C8.13 2 5 5.13 5 9c0 5.25 7 13 7 13s7-7.75 7-13c0-3.87-3.13-7-7-7z" fill="url(#pinGradient)"/>
      <circle cx="12" cy="9" r="2.5" fill="rgba(255,255,255,0.6)"/>
    </g>
    
    <!-- Pin 3 -->
    <g transform="translate(1400, 300)">
      <path d="M12 2C8.13 2 5 5.13 5 9c0 5.25 7 13 7 13s7-7.75 7-13c0-3.87-3.13-7-7-7z" fill="url(#pinGradient)"/>
      <circle cx="12" cy="9" r="2.5" fill="rgba(255,255,255,0.6)"/>
    </g>
    
    <!-- Pin 4 -->
    <g transform="translate(600, 700)">
      <path d="M12 2C8.13 2 5 5.13 5 9c0 5.25 7 13 7 13s7-7.75 7-13c0-3.87-3.13-7-7-7z" fill="url(#pinGradient)"/>
      <circle cx="12" cy="9" r="2.5" fill="rgba(255,255,255,0.6)"/>
    </g>
    
    <!-- Pin 5 -->
    <g transform="translate(1200, 750)">
      <path d="M12 2C8.13 2 5 5.13 5 9c0 5.25 7 13 7 13s7-7.75 7-13c0-3.87-3.13-7-7-7z" fill="url(#pinGradient)"/>
      <circle cx="12" cy="9" r="2.5" fill="rgba(255,255,255,0.6)"/>
    </g>
  </g>
  
  <!-- Elementos geométricos decorativos -->
  <g opacity="0.1">
    <!-- Hexágonos -->
    <polygon points="150,100 175,87 200,100 200,125 175,138 150,125" fill="rgba(255,255,255,0.3)"/>
    <polygon points="1750,850 1775,837 1800,850 1800,875 1775,888 1750,875" fill="rgba(255,255,255,0.3)"/>
    
    <!-- Triângulos -->
    <polygon points="100,950 125,900 150,950" fill="rgba(255,255,255,0.2)"/>
    <polygon points="1850,150 1875,100 1900,150" fill="rgba(255,255,255,0.2)"/>
  </g>
  
  <!-- Pontos de luz sutis -->
  <g opacity="0.6">
    <circle cx="450" cy="180" r="3" fill="rgba(255,255,255,0.8)">
      <animate attributeName="opacity" values="0.3;0.8;0.3" dur="3s" repeatCount="indefinite"/>
    </circle>
    <circle cx="1350" cy="450" r="2" fill="rgba(255,255,255,0.7)">
      <animate attributeName="opacity" values="0.4;0.9;0.4" dur="4s" repeatCount="indefinite"/>
    </circle>
    <circle cx="750" cy="850" r="2.5" fill="rgba(255,255,255,0.6)">
      <animate attributeName="opacity" values="0.2;0.7;0.2" dur="5s" repeatCount="indefinite"/>
    </circle>
    <circle cx="250" cy="650" r="2" fill="rgba(255,255,255,0.8)">
      <animate attributeName="opacity" values="0.5;1;0.5" dur="3.5s" repeatCount="indefinite"/>
    </circle>
  </g>
  
  <!-- Overlay sutil para suavizar -->
  <rect width="1920" height="1080" fill="rgba(0,0,0,0.05)"/>
</svg>